<svg id="Layer_1" data-name="Layer 1" xmlns="http://www.w3.org/2000/svg" viewBox="0 0 16 16"><defs><style>.cls-1{fill:#fff;}.cls-2{fill:#1a965a;}</style></defs><title>fav_16</title><rect class="cls-1" x="0.54" y="0.21" width="14.64" height="15.18" rx="4.6" ry="4.6"/><path class="cls-2" d="M12,0H4A4,4,0,0,0,0,4v8a4,4,0,0,0,4,4h8a4,4,0,0,0,4-4V4A4,4,0,0,0,12,0ZM4.54,7.5h1V9H4.65a3.51,3.51,0,0,0,2.6,2.42V10.5h1.5v.92A3.48,3.48,0,0,0,11,9.74l1.3.75a5,5,0,0,1-3.59,2.45V14H7.25V12.94A5,5,0,0,1,3.1,9H2V7.5H3A5,5,0,0,1,7.25,3.06V2h1.5V3.06a5,5,0,0,1,3.59,2.45L11,6.26A3.48,3.48,0,0,0,8.75,4.58V5.5H7.25V4.58A3.51,3.51,0,0,0,4.54,7.5Z"/></svg>